<svg width="65" height="64" viewBox="0 0 65 64" fill="none" xmlns="http://www.w3.org/2000/svg">
<path fill-rule="evenodd" clip-rule="evenodd" d="M21.517 0.754037C23.9663 0.759058 26.3139 1.73427 28.0458 3.46621C29.7778 5.19815 30.753 7.54572 30.758 9.99504V30.636H9.20601C7.85167 30.6188 6.51769 30.3041 5.29848 29.7141C4.07928 29.1241 3.00466 28.2734 2.15071 27.222C1.29677 26.1707 0.684364 24.9445 0.356859 23.6303C0.0293538 22.316 -0.0052457 20.9458 0.25551 19.6167C0.516265 18.2876 1.066 17.0321 1.8658 15.939C2.66559 14.8459 3.6959 13.942 4.88377 13.2912C6.07165 12.6405 7.38805 12.2588 8.73979 12.1732C10.0915 12.0877 11.4456 12.3003 12.706 12.796C12.264 11.4105 12.1554 9.9402 12.3891 8.50478C12.6229 7.06937 13.1923 5.70945 14.0511 4.53576C14.9099 3.36207 16.0337 2.40779 17.3311 1.75063C18.6284 1.09346 20.0627 0.752 21.517 0.754037ZM42.623 63.154C40.1736 63.149 37.826 62.1736 36.0942 60.4414C34.3624 58.7093 33.3875 56.3614 33.383 53.912V33.271H54.932C56.287 33.2875 57.6217 33.6017 58.8417 34.1914C60.0617 34.7811 61.1372 35.6318 61.9918 36.6834C62.8464 37.7349 63.4594 38.9615 63.7872 40.2763C64.1151 41.5911 64.1498 42.9619 63.8889 44.2916C63.6281 45.6213 63.078 46.8774 62.2777 47.9708C61.4773 49.0643 60.4464 49.9684 59.2578 50.6191C58.0692 51.2698 56.752 51.6511 55.3997 51.7361C54.0473 51.8212 52.6927 51.6077 51.432 51.111C51.8742 52.4964 51.9829 53.9667 51.7494 55.4021C51.5159 56.8375 50.9466 58.1974 50.0881 59.3712C49.2295 60.545 48.1058 61.4994 46.8086 62.1568C45.5114 62.8141 44.0773 63.1558 42.623 63.154Z" fill="white"/>
</svg>
