<svg width="65" height="64" viewBox="0 0 65 64" fill="none" xmlns="http://www.w3.org/2000/svg">
<path fill-rule="evenodd" clip-rule="evenodd" d="M21.517 63.154C23.9663 63.149 26.3139 62.1738 28.0458 60.4419C29.7777 58.7099 30.753 56.3624 30.758 53.913V33.271H9.20598C7.85103 33.2875 6.51627 33.6017 5.29626 34.1914C4.07625 34.7811 3.00083 35.6318 2.14619 36.6834C1.29155 37.7349 0.678594 38.9615 0.350749 40.2763C0.0229029 41.5911 -0.0118135 42.9619 0.249059 44.2916C0.509931 45.6213 1.06001 46.8774 1.86033 47.9708C2.66064 49.0643 3.69162 49.9684 4.88022 50.6191C6.06882 51.2698 7.38596 51.6511 8.73834 51.7361C10.0907 51.8212 11.4453 51.6077 12.706 51.111C12.2637 52.4966 12.155 53.967 12.3887 55.4026C12.6223 56.8381 13.1917 58.1982 14.0505 59.372C14.9093 60.5458 16.0332 61.5002 17.3307 62.1574C18.6282 62.8147 20.0625 63.1561 21.517 63.154ZM42.623 0.754034C40.1738 0.759319 37.8265 1.73465 36.0948 3.46656C34.3631 5.19847 33.388 7.54588 33.383 9.99503V30.635H54.932C56.2863 30.6178 57.6203 30.303 58.8395 29.7131C60.0587 29.1231 61.1333 28.2724 61.9873 27.221C62.8412 26.1697 63.4536 24.9435 63.7811 23.6293C64.1086 22.315 64.1432 20.9448 63.8825 19.6157C63.6217 18.2866 63.072 17.0311 62.2722 15.938C61.4724 14.8449 60.4421 13.941 59.2542 13.2902C58.0663 12.6395 56.7499 12.2578 55.3982 12.1722C54.0465 12.0867 52.6924 12.2993 51.432 12.795C51.8738 11.4097 51.9822 9.93971 51.7485 8.50458C51.5148 7.06945 50.9455 5.70979 50.087 4.53627C49.2284 3.36275 48.1049 2.40853 46.8079 1.75129C45.5109 1.09405 44.077 0.752363 42.623 0.754034Z" fill="white"/>
</svg>
